HIERARCHY
ROOT Hips
{
  OFFSET 0.0000 0.0000 0.0000
  CHANNELS 6 Xposition Yposition Zposition Zrotation Xrotation Yrotation
  JOINT LeftHip
  {
    OFFSET 5.5000 -0.0000 0.0000
    CHANNELS 3 Zrotation Xrotation Yrotation
    JOINT LeftKnee
    {
      OFFSET 0.0000 -17.5000 0.0000
      CHANNELS 3 Zrotation Xrotation Yrotation
      JOINT LeftAnkle
      {
        OFFSET 0.0000 -17.0000 -0.0000
        CHANNELS 3 Zrotation Xrotation Yrotation
        End Site
        {
            OFFSET 0.0000 -4.7000 -2.0000
        }
      }
    }
  }
  JOINT RightHip
  {
    OFFSET -5.5000 0.0000 0.0000
    CHANNELS 3 Zrotation Xrotation Yrotation
    JOINT RightKnee
    {
      OFFSET 0.0000 -17.5000 0.0000
      CHANNELS 3 Zrotation Xrotation Yrotation
      JOINT RightAnkle
      {
        OFFSET 0.0000 -17.0000 -0.0000
        CHANNELS 3 Zrotation Xrotation Yrotation
        End Site
        {
            OFFSET 0.0000 -4.7000 -2.0000
        }
      }
    }
  }
  JOINT Chest
  {
    OFFSET 0.0000 3.0000 -1.0000
    CHANNELS 3 Zrotation Xrotation Yrotation
    JOINT LeftCollar
    {
      OFFSET 0.0000 18.0000 1.0000
      CHANNELS 3 Zrotation Xrotation Yrotation
      JOINT LeftShoulder
      {
        OFFSET 6.5000 0.0000 0.0000
        CHANNELS 3 Zrotation Xrotation Yrotation
        JOINT LeftElbow
        {
          OFFSET 0.0000 -11.0000 -0.0000
          CHANNELS 3 Zrotation Xrotation Yrotation
          JOINT LeftWrist
          {
            OFFSET 0.0000 -10.5000 0.0000
            CHANNELS 3 Zrotation Xrotation Yrotation
            End Site
            {
                OFFSET 0.0000 -6.0000 0.0000
            }
          }
        }
      }
    }
    JOINT RightCollar
    {
      OFFSET 0.0000 18.0000 1.0000
      CHANNELS 3 Zrotation Xrotation Yrotation
      JOINT RightShoulder
      {
        OFFSET -6.5000 0.0000 0.0000
        CHANNELS 3 Zrotation Xrotation Yrotation
        JOINT RightElbow
        {
          OFFSET -0.0000 -11.0000 -0.0000
          CHANNELS 3 Zrotation Xrotation Yrotation
          JOINT RightWrist
          {
            OFFSET -0.0000 -10.5000 0.0000
            CHANNELS 3 Zrotation Xrotation Yrotation
            End Site
            {
                OFFSET 0.0000 -6.0000 0.0000
            }
          }
        }
      }
    }
    JOINT Neck
    {
      OFFSET 0.0000 18.0000 1.0000
      CHANNELS 3 Zrotation Xrotation Yrotation
      JOINT Head
      {
        OFFSET 0.0000 3.0000 0.0000
        CHANNELS 3 Zrotation Xrotation Yrotation
        End Site
        {
            OFFSET 0.0000 7.0000 0.0000
        }
      }
    }
  }
}
MOTION
Frames:	26
Frame Time:	0.033333
0.4400 48.2493 0.5262 12.95 0.87 -6.85 2.41 -36.47 9.72 -0.01 69.22 1.31 -10.77 0.30 -4.96 -13.75 -5.93 0.28 0.00 7.46 -0.71 8.83 10.24 0.35 -9.97 12.78 2.62 0.00 0.00 0.00 157.80 -2.24 113.24 0.11 -64.98 -7.33 -15.90 0.76 14.14 0.00 0.00 0.00 -171.66 2.65 -94.89 -0.16 -66.90 12.94 8.65 15.01 -39.81 0.00 0.00 0.00 -0.32 2.33 -2.48 
0.3155 49.7859 0.5074 12.00 1.35 -6.15 1.53 -28.83 9.27 0.00 53.84 1.34 -8.39 7.73 -4.36 -12.85 -7.11 -0.03 -0.00 7.53 -0.65 9.45 15.66 -0.36 -9.53 10.77 2.06 0.00 0.00 0.00 159.59 0.92 112.70 0.06 -54.69 -5.33 -10.60 -7.01 5.95 0.00 0.00 0.00 -176.07 5.91 -92.59 -0.02 -59.30 9.30 2.87 11.97 -31.99 0.00 0.00 0.00 -1.27 5.31 -3.38 
0.1270 49.6390 0.6685 8.69 1.87 -5.23 2.53 -20.26 8.81 0.02 36.18 1.14 -6.71 15.80 -3.73 -9.60 -8.19 0.10 0.00 8.68 -0.58 9.83 19.69 -1.12 -6.56 9.39 1.41 0.00 0.00 0.00 160.49 1.93 111.84 0.03 -44.77 -3.82 -5.71 -15.28 -1.12 0.00 0.00 0.00 -178.28 7.28 -90.60 0.01 -51.65 6.48 -2.18 6.47 -24.88 0.00 0.00 0.00 -1.38 8.48 -3.84 
-0.0725 47.8338 1.0004 4.05 2.38 -4.38 5.06 -13.71 8.22 -0.00 23.20 0.78 -5.65 20.42 -3.24 -5.12 -11.88 0.57 -0.00 17.24 -0.46 9.92 18.87 -1.08 -2.16 8.45 0.82 0.00 0.00 0.00 160.58 2.39 111.13 0.00 -35.75 -2.71 -1.48 -23.04 -6.37 0.00 0.00 0.00 -178.85 8.19 -89.08 0.00 -44.28 4.45 -6.04 -0.43 -19.41 0.00 0.00 0.00 -0.90 10.35 -4.05 
-0.1894 44.9734 1.3488 1.62 2.56 -3.79 6.32 -12.12 7.70 -0.00 21.48 0.60 -4.82 19.87 -3.50 -2.85 -19.27 0.83 -0.01 32.35 -0.58 9.35 12.25 0.69 -0.08 7.64 0.47 0.00 0.00 0.00 159.85 3.01 110.22 -0.01 -28.28 -2.18 2.45 -29.81 -9.22 0.00 0.00 0.00 -178.38 9.26 -88.23 0.01 -37.34 3.15 -8.46 -7.47 -15.48 0.00 0.00 0.00 -0.36 11.14 -3.60 
-0.2343 42.0729 1.6609 1.55 2.41 -3.53 5.54 -12.39 7.10 -0.01 24.27 0.60 -4.27 17.51 -4.01 -2.96 -24.87 0.83 0.01 45.93 -0.89 8.59 5.90 2.83 -0.61 6.83 0.49 0.00 0.00 0.00 158.21 3.70 108.75 -0.01 -22.16 -2.22 6.97 -35.07 -8.36 0.00 0.00 0.00 -176.42 10.37 -88.28 -0.01 -30.64 2.35 -9.59 -14.53 -13.03 0.00 0.00 0.00 0.16 11.67 -2.59 
-0.2415 39.2956 2.0209 1.61 2.08 -3.45 4.83 -13.40 6.64 0.02 32.25 0.87 -4.28 10.64 -4.51 -3.30 -25.72 0.64 0.00 51.78 -1.52 8.05 1.27 4.77 -1.41 6.09 0.94 0.00 0.00 0.00 155.54 4.04 106.79 -0.00 -17.49 -2.38 12.54 -38.98 -4.47 0.00 0.00 0.00 -172.93 10.92 -88.80 0.01 -24.74 2.12 -10.76 -21.42 -11.50 0.00 0.00 0.00 0.82 12.27 -1.17 
-0.2153 37.3587 1.8154 1.37 1.09 -3.34 3.56 -17.27 6.47 -0.01 45.00 1.10 -4.15 0.80 -4.28 -3.46 -26.04 0.10 0.01 56.56 -2.74 8.35 -3.47 6.90 -1.97 4.59 1.19 0.00 0.00 0.00 149.73 3.44 106.37 0.03 -13.54 -1.84 15.41 -45.39 -1.68 0.00 0.00 0.00 -168.06 11.05 -87.54 -0.00 -20.46 2.67 -12.16 -26.89 -13.02 0.00 0.00 0.00 0.90 11.90 -0.76 
-0.1835 35.1115 0.5716 0.67 -1.43 -3.21 0.90 -24.03 6.02 -0.06 59.16 0.63 -3.26 -6.88 -0.81 -3.11 -29.46 -0.45 -0.08 64.40 -4.26 9.51 -7.43 8.63 -2.36 1.33 0.62 0.00 0.00 0.00 138.21 -0.10 105.16 -0.04 -9.22 -2.56 18.53 -55.51 2.82 0.00 0.00 0.00 -160.78 9.29 -82.78 0.01 -17.21 3.90 -15.73 -32.38 -20.41 0.00 0.00 0.00 -0.08 11.94 -2.79 
-0.1516 34.1595 -0.5223 -0.25 -5.27 -3.17 -1.20 -26.37 4.46 0.05 71.04 -0.10 -3.71 -13.93 3.08 -2.40 -32.11 -0.69 0.03 72.85 -5.89 11.35 -11.17 9.44 -2.76 -2.11 -0.36 0.00 0.00 0.00 124.89 -5.15 97.42 0.01 -6.21 -7.08 34.92 -62.85 20.32 0.00 0.00 0.00 -149.45 4.11 -73.93 0.01 -14.34 5.38 -23.92 -38.81 -30.61 0.00 0.00 0.00 -1.00 17.02 -5.22 
-0.1225 34.1570 -0.8516 -1.17 -9.00 -3.21 -1.41 -21.71 3.00 -0.01 73.81 0.67 -6.51 -17.93 3.65 -1.27 -29.59 -0.68 0.03 74.65 -6.77 12.94 -12.69 8.70 -2.98 -2.96 -1.08 0.00 0.00 0.00 109.91 -9.33 83.88 0.00 -3.05 -10.66 63.21 -63.24 47.19 0.00 0.00 0.00 -133.94 -1.90 -63.52 -0.00 -10.57 5.35 -37.11 -46.10 -40.32 0.00 0.00 0.00 -0.93 26.76 -5.59 
-0.1122 34.3474 -0.5138 -1.92 -11.51 -3.28 -1.00 -17.19 2.69 -0.01 73.16 2.27 -8.68 -18.86 2.10 -0.06 -25.43 -0.65 0.01 73.68 -7.20 14.15 -13.50 7.35 -2.86 -0.78 -1.21 0.00 0.00 0.00 92.23 -10.31 70.88 0.01 0.74 -8.79 88.37 -61.57 69.64 0.00 0.00 0.00 -114.33 -4.38 -54.78 -0.05 -4.95 2.63 -54.50 -55.67 -51.01 0.00 0.00 0.00 0.11 35.52 -4.89 
-0.1037 34.5117 -0.1521 -2.50 -13.05 -3.50 -0.52 -15.09 2.60 0.00 72.32 3.53 -9.88 -18.11 0.73 0.79 -22.78 -1.07 -0.00 72.39 -7.45 14.79 -13.16 6.33 -2.42 2.28 -1.54 0.00 0.00 0.00 75.50 -8.11 62.47 -0.01 0.92 -4.73 99.20 -63.39 78.81 0.00 0.00 0.00 -94.59 -1.36 -49.61 0.02 -1.52 -1.09 -73.00 -63.86 -65.43 0.00 0.00 0.00 2.59 38.12 -5.38 
-0.0974 34.7328 -0.0410 -2.91 -13.85 -3.88 -0.13 -14.05 2.31 -0.00 71.65 4.10 -10.45 -17.30 0.14 1.48 -20.88 -1.55 -0.00 71.05 -7.24 15.04 -12.86 5.38 -1.82 5.33 -2.07 0.00 0.00 0.00 61.49 -3.82 56.88 -0.00 1.10 -2.53 105.80 -64.50 85.45 0.00 0.00 0.00 -77.99 4.01 -47.36 0.02 -2.35 -3.27 -86.54 -68.35 -77.36 0.00 0.00 0.00 4.55 37.14 -5.84 
-0.0977 35.2893 0.0857 -3.20 -14.00 -4.48 0.33 -13.31 1.64 0.00 70.08 3.98 -10.97 -15.76 0.43 1.61 -18.25 -1.98 -0.00 68.63 -6.80 15.37 -12.78 5.13 -1.21 8.14 -2.74 0.00 0.00 0.00 50.50 0.82 52.07 0.02 -0.67 -2.63 103.62 -64.50 83.34 0.00 0.00 0.00 -64.85 8.38 -46.13 -0.00 -6.72 -4.08 -83.29 -71.16 -72.85 0.00 0.00 0.00 5.61 34.21 -5.55 
-0.1118 36.1345 0.3628 -3.38 -13.63 -5.35 0.97 -12.24 0.52 0.00 66.92 3.63 -11.96 -13.07 1.38 1.26 -15.14 -2.54 0.00 64.19 -6.41 15.33 -11.64 5.51 -0.65 10.55 -3.43 0.00 0.00 0.00 42.03 4.83 47.37 0.00 -6.19 -3.64 90.04 -64.48 68.89 0.00 0.00 0.00 -54.69 10.34 -43.70 -0.01 -13.12 -3.36 -66.11 -70.93 -52.81 0.00 0.00 0.00 6.12 30.21 -4.18 
-0.1367 37.0372 0.7973 -3.53 -12.97 -6.39 1.91 -11.08 -0.68 -0.00 62.85 3.44 -13.21 -9.87 2.29 0.85 -12.12 -3.04 -0.00 58.20 -5.96 14.72 -9.43 5.83 -0.29 12.29 -3.83 0.00 0.00 0.00 35.84 7.24 43.86 -0.00 -12.51 -3.83 71.68 -65.02 48.97 0.00 0.00 0.00 -47.22 9.70 -39.31 -0.01 -20.10 -1.68 -47.75 -66.57 -30.15 0.00 0.00 0.00 6.22 25.99 -1.93 
-0.1646 37.8693 1.2479 -3.68 -12.20 -7.51 3.20 -9.39 -1.70 -0.00 57.45 3.37 -14.25 -6.41 2.68 0.56 -8.50 -3.24 -0.01 51.38 -5.29 14.07 -7.34 5.91 -0.22 13.33 -3.79 0.00 0.00 0.00 31.07 8.43 41.25 -0.00 -18.35 -3.56 52.38 -64.09 27.81 0.00 0.00 0.00 -41.96 7.32 -33.14 -0.00 -26.32 0.53 -36.28 -58.51 -13.84 0.00 0.00 0.00 6.04 22.33 0.52 
-0.1885 38.5910 1.7653 -3.87 -11.41 -8.61 4.57 -6.67 -2.31 -0.01 49.82 3.30 -14.62 -2.35 2.65 0.51 -5.05 -3.11 -0.00 44.89 -4.43 13.45 -5.70 5.53 -0.39 13.86 -3.33 0.00 0.00 0.00 27.48 9.00 39.05 0.00 -23.07 -3.19 35.58 -61.35 9.13 0.00 0.00 0.00 -38.17 4.08 -25.70 -0.00 -31.00 3.04 -31.02 -48.93 -4.22 0.00 0.00 0.00 5.75 19.39 2.88 
-0.1967 38.9693 2.1870 -4.10 -10.65 -9.63 5.13 -3.91 -2.80 0.01 43.18 2.75 -14.32 -0.06 3.08 0.56 -2.67 -2.72 0.00 40.40 -3.54 12.96 -5.13 4.98 -0.61 14.01 -2.71 0.00 0.00 0.00 24.98 9.07 36.75 0.00 -26.37 -2.92 23.67 -57.26 -4.44 0.00 0.00 0.00 -35.21 0.60 -17.95 0.00 -34.11 5.37 -28.00 -39.84 2.03 0.00 0.00 0.00 5.59 16.85 4.75 
-0.1901 39.0419 2.2086 -4.31 -10.04 -10.56 4.82 -2.58 -3.56 -0.01 40.65 1.72 -13.93 -0.97 4.18 0.58 -1.65 -2.18 0.00 38.58 -2.83 12.54 -5.85 4.57 -0.72 13.75 -2.13 0.00 0.00 0.00 23.25 8.62 34.34 0.00 -28.26 -2.69 15.39 -52.52 -14.26 0.00 0.00 0.00 -32.74 -2.77 -10.83 0.01 -35.94 6.75 -24.87 -32.07 7.35 0.00 0.00 0.00 5.62 13.94 6.12 
-0.1798 39.0907 1.9956 -4.48 -9.62 -11.37 4.60 -2.40 -4.24 -0.00 39.92 1.07 -13.64 -2.35 4.71 0.60 -1.30 -1.51 -0.00 38.15 -2.32 12.10 -7.17 4.17 -0.75 13.22 -1.54 0.00 0.00 0.00 21.76 8.16 31.92 0.00 -28.73 -2.59 9.72 -48.41 -21.23 0.00 0.00 0.00 -30.90 -5.30 -4.97 0.00 -36.28 6.97 -21.29 -26.94 11.95 0.00 0.00 0.00 5.55 11.86 7.15 
-0.1632 39.1477 1.8007 -4.62 -9.29 -12.00 4.50 -2.25 -4.55 -0.00 39.13 0.94 -13.14 -3.42 4.30 0.81 -1.08 -0.72 0.00 37.76 -1.88 11.48 -8.35 3.42 -0.77 12.77 -0.83 0.00 0.00 0.00 20.44 7.81 29.14 -0.00 -28.18 -2.97 6.24 -45.20 -25.54 0.00 0.00 0.00 -29.26 -6.70 -0.32 -0.00 -35.43 6.03 -17.83 -24.31 16.04 0.00 0.00 0.00 5.43 10.79 7.94 
-0.1310 39.2440 1.8374 -4.71 -8.95 -12.43 4.48 -1.61 -4.48 -0.00 37.78 1.07 -12.38 -4.38 3.15 1.21 -1.18 0.14 0.00 37.65 -1.54 10.74 -9.43 2.47 -0.73 12.51 -0.13 0.00 0.00 0.00 19.50 7.19 25.51 -0.00 -27.21 -3.90 4.79 -42.22 -27.24 0.00 0.00 0.00 -27.37 -7.09 2.58 -0.01 -33.89 3.97 -14.09 -23.79 20.94 0.00 0.00 0.00 5.43 9.65 8.18 
-0.0926 39.3057 2.1074 -4.73 -8.59 -12.69 4.44 -0.35 -4.17 -0.00 35.81 1.18 -11.49 -5.42 1.86 1.41 -0.82 1.11 -0.00 37.01 -1.29 10.24 -10.31 1.53 -0.58 12.34 0.40 0.00 0.00 0.00 18.88 6.22 21.54 0.00 -26.12 -4.67 3.84 -39.28 -28.14 0.00 0.00 0.00 -25.17 -6.92 3.70 -0.00 -32.11 1.35 -9.93 -24.17 26.87 0.00 0.00 0.00 5.53 8.30 7.96 
-0.0686 39.3680 2.2153 -4.69 -8.22 -12.85 4.43 0.48 -3.88 0.00 34.12 1.13 -10.87 -6.39 0.85 1.66 -0.81 2.04 0.00 36.38 -1.13 9.67 -10.74 0.58 -0.41 12.19 0.81 0.00 0.00 0.00 18.22 5.17 18.06 0.00 -25.05 -4.76 2.31 -36.76 -29.86 0.00 0.00 0.00 -23.17 -6.59 3.88 0.00 -30.47 -0.86 -6.06 -24.25 32.19 0.00 0.00 0.00 5.54 6.97 7.76 
